<?xml version="1.0" encoding="iso-8859-1" standalone="yes"?><!-- Generator: Adobe Illustrator 19.0.0, SVG Export Plug-In . SVG Version: 6.00 Build 0)  --><svg xmlns="http://www.w3.org/2000/svg" xmlns:xlink="http://www.w3.org/1999/xlink" version="1.1" id="Layer_1" x="0px" y="0px" viewBox="0 0 512 512" style="enable-background:new 0 0 512 512;zoom: 1;" xml:space="preserve"><path style="fill:#FFFFFF;" d="M395.901,7.286 H116.099 C56.003,7.286 7.286,56.003 7.286,116.099 v56.997 h497.427 v-56.997 C504.714,56.003 455.997,7.286 395.901,7.286  z "></path><path style="fill:#ED1F34;" d="M-2468.608887,-496.933289 c0,60.095 48.717,108.812 108.812,108.812 h279.803 c60.095,0 108.812,-48.717 108.812,-108.812 v-56.997 H-2468.608887 V-496.933289  z "></path><path d="M395.901,0 H116.099 C52.082,0 0,52.082 0,116.099 v279.803 C0,459.918 52.082,512 116.099,512 h279.803 C459.918,512 512,459.918 512,395.901 V116.099 C512,52.082 459.918,0 395.901,0  z M116.099,14.573 h279.803 c55.981,0 101.526,45.544 101.526,101.526 v49.71 H14.573 v-49.71 C14.573,60.117 60.118,14.573 116.099,14.573  z M395.901,497.427 H116.099 c-55.981,0 -101.526,-45.544 -101.526,-101.526 v-49.71 h390.655 c4.025,0 7.286,-3.262 7.286,-7.287 c0,-4.024 -3.262,-7.286 -7.286,-7.286 H14.573 V180.382 h482.854 v151.236 H438.39 c-4.025,0 -7.286,3.262 -7.286,7.286 c0,4.024 3.262,7.287 7.286,7.287 h59.037 v49.71 C497.427,451.883 451.882,497.427 395.901,497.427  z "></path><g></g><g></g><g></g><g></g><g></g><g></g><g></g><g></g><g></g><g></g><g></g><g></g><g></g><g></g><g></g><ellipse stroke="#000000" ry="98.566833px" id="ellipse1" stroke-width="3px" cy="398.830688px" fill="#ffffff" rx="98.566833px" cx="114.538338px" transform=""></ellipse><circle stroke="#000000" id="circle1" stroke-width="3px" cy="397.005341px" fill="#ffffff" r="99.479492px" cx="396.548981px" transform=""></circle><rect stroke="#000000" x="16.884136px" height="62.060608px" y="344.983948px" id="rect1" stroke-width="0px" width="479.144348px" fill="#fffef3" transform=""></rect><rect stroke="#000000" x="106.324417px" height="96.741547px" y="399.743317px" id="rect2" stroke-width="0px" width="306.652405px" fill="#fffef3" transform=""></rect><rect stroke="#000000" x="13.233512px" height="152.413559px" y="179.793228px" id="rect3" stroke-width="0px" width="485.532959px" fill="#fc001b" transform=""></rect><rect stroke="#000000" x="2.28164px" height="14.602478px" y="331.294128px" id="rect4" stroke-width="0px" width="494.659515px" fill="#000000" transform=""></rect></svg>