<?xml version="1.0" encoding="iso-8859-1" standalone="yes"?><!-- Generator: Adobe Illustrator 19.0.0, SVG Export Plug-In . SVG Version: 6.00 Build 0)  --><svg xmlns="http://www.w3.org/2000/svg" xmlns:xlink="http://www.w3.org/1999/xlink" version="1.1" id="Layer_1" x="0px" y="0px" viewBox="0 0 512 512" style="enable-background:new 0 0 512 512;zoom: 1;" xml:space="preserve"><rect x="7.286" y="173.1" style="fill:#103B9B;" width="497.43" height="165.81"></rect><path style="fill:#FFFFFF;" d="M395.901,7.286H116.099C56.003,7.286,7.286,56.003,7.286,116.099v56.997h497.427v-56.997 C504.714,56.003,455.997,7.286,395.901,7.286z"></path><path style="fill:#ED1F34;" d="M7.286,395.901 c0,60.095 48.717,108.812 108.812,108.812 h279.803 c60.095,0 108.812,-48.717 108.812,-108.812 v-56.997 H7.286 V395.901  z "></path><path d="M395.901,0 H116.099 C52.082,0 0,52.082 0,116.099 v279.803 C0,459.918 52.082,512 116.099,512 h279.803 C459.918,512 512,459.918 512,395.901 V116.099 C512,52.082 459.918,0 395.901,0  z M116.099,14.573 h279.803 c55.981,0 101.526,45.544 101.526,101.526 v49.71 H14.573 v-49.71 C14.573,60.117 60.118,14.573 116.099,14.573  z M395.901,497.427 H116.099 c-55.981,0 -101.526,-45.544 -101.526,-101.526 v-49.71 h390.655 c4.025,0 7.286,-3.262 7.286,-7.287 c0,-4.024 -3.262,-7.286 -7.286,-7.286 H14.573 V180.382 h482.854 v151.236 H438.39 c-4.025,0 -7.286,3.262 -7.286,7.286 c0,4.024 3.262,7.287 7.286,7.287 h59.037 v49.71 C497.427,451.883 451.882,497.427 395.901,497.427  z "></path><g></g><g></g><g></g><g></g><g></g><g></g><g></g><g></g><g></g><g></g><g></g><g></g><g></g><g></g><g></g><rect stroke="#000000" x="400.199646px" height="10.951874px" y="333.119415px" id="rect1" stroke-width="3px" width="46.545441px" fill="#000000" transform=""></rect></svg>